<?xml version="1.0" encoding="utf-8"?>
<!-- Generator: Adobe Illustrator 25.4.1, SVG Export Plug-In . SVG Version: 6.00 Build 0)  -->
<svg version="1.1" id="Layer_1" xmlns="http://www.w3.org/2000/svg" xmlns:xlink="http://www.w3.org/1999/xlink" x="0px" y="0px"
	 viewBox="0 0 119.63 35.52" style="enable-background:new 0 0 119.63 35.52;" xml:space="preserve">
<style type="text/css">
	.st0{fill:#929497;}
	.st1{fill:#404041;}
	.st2{font-family:'SukhumvitSet-Thin';}
	.st3{font-size:4.8803px;}
</style>
<g>
	<path class="st0" d="M10.32,14.81c-0.38-0.88-0.86-1.61-1.43-2.17c-0.57-0.56-1.2-0.84-1.88-0.84c-0.48,0-0.84,0.19-1.08,0.56
		c-0.24,0.37-0.36,0.87-0.36,1.49c0,0.44,0.06,0.82,0.17,1.13c0.11,0.31,0.27,0.59,0.48,0.84c0.21,0.25,0.46,0.49,0.75,0.71
		c0.29,0.22,0.63,0.46,1.01,0.72c0.68,0.46,1.29,0.9,1.81,1.33s0.96,0.88,1.31,1.39c0.35,0.5,0.62,1.07,0.8,1.7
		c0.18,0.63,0.27,1.38,0.27,2.25c0,0.66-0.14,1.29-0.42,1.87c-0.28,0.58-0.66,1.09-1.15,1.52c-0.48,0.43-1.05,0.77-1.72,1.02
		C8.21,28.57,7.5,28.7,6.76,28.7c-1.61,0-2.81-0.38-3.62-1.13s-1.21-1.69-1.21-2.82c0-1.25,0.53-1.87,1.6-1.87
		c1,0,1.51,0.47,1.51,1.42c0,0.8-0.35,1.24-1.06,1.3c0.14,0.46,0.45,0.82,0.93,1.07c0.48,0.25,1.06,0.38,1.75,0.38
		s1.22-0.27,1.6-0.8c0.38-0.53,0.57-1.32,0.57-2.37c0-0.82-0.21-1.53-0.63-2.11c-0.42-0.58-1.02-1.18-1.81-1.78
		c-0.46-0.36-0.92-0.73-1.39-1.1c-0.46-0.37-0.88-0.78-1.25-1.22c-0.37-0.44-0.67-0.93-0.9-1.46c-0.23-0.53-0.35-1.14-0.35-1.82
		c0-0.54,0.11-1.05,0.33-1.52c0.22-0.47,0.53-0.88,0.93-1.22c0.4-0.34,0.9-0.61,1.49-0.81c0.59-0.2,1.25-0.3,1.97-0.3
		c0.42,0,0.82,0.04,1.19,0.14c0.37,0.09,0.76,0.26,1.16,0.5c0.16-0.14,0.38-0.27,0.65-0.38c0.27-0.11,0.58-0.18,0.92-0.2
		c0.18,0.76,0.3,1.5,0.35,2.2c0.05,0.7,0.08,1.38,0.08,2.02H10.32z"/>
	<path class="st0" d="M27.43,17.04c0,1.21-0.2,2.24-0.6,3.1c-0.4,0.86-0.93,1.57-1.58,2.12c-0.65,0.55-1.39,0.96-2.2,1.24
		c-0.81,0.27-1.64,0.41-2.49,0.41c-0.94,0-1.84-0.15-2.68-0.45s-1.58-0.73-2.2-1.3c-0.62-0.56-1.12-1.25-1.48-2.05
		c-0.36-0.8-0.54-1.71-0.54-2.71c0-1.29,0.2-2.37,0.6-3.24c0.4-0.87,0.93-1.58,1.58-2.12c0.65-0.54,1.4-0.93,2.25-1.16
		s1.71-0.35,2.59-0.35c0.9,0,1.77,0.15,2.59,0.45c0.82,0.3,1.54,0.73,2.15,1.3c0.61,0.56,1.1,1.25,1.46,2.05
		C27.25,15.13,27.43,16.03,27.43,17.04z M20.68,22.52c0.62,0,1.1-0.16,1.45-0.48c0.34-0.32,0.6-0.71,0.77-1.16
		c0.17-0.45,0.27-0.92,0.3-1.4c0.03-0.48,0.04-0.88,0.04-1.2c0-0.62-0.02-1.3-0.04-2.04c-0.03-0.74-0.13-1.43-0.3-2.07
		c-0.17-0.64-0.44-1.18-0.8-1.61c-0.36-0.43-0.87-0.65-1.54-0.65c-0.64,0-1.15,0.17-1.51,0.5c-0.36,0.33-0.63,0.72-0.8,1.17
		c-0.17,0.45-0.27,0.92-0.3,1.4c-0.03,0.48-0.04,0.87-0.04,1.17c0,0.62,0.02,1.3,0.04,2.04c0.03,0.74,0.13,1.43,0.3,2.07
		c0.17,0.64,0.44,1.18,0.81,1.61C19.44,22.31,19.98,22.52,20.68,22.52z"/>
	<path class="st0" d="M39.61,23.52c-0.08-0.14-0.13-0.29-0.15-0.44c-0.02-0.15-0.03-0.34-0.03-0.56v-0.45
		c-0.2,0.26-0.4,0.49-0.6,0.69s-0.44,0.37-0.72,0.51c-0.28,0.14-0.61,0.25-0.98,0.32c-0.37,0.07-0.82,0.11-1.34,0.11
		c-0.78,0-1.49-0.08-2.12-0.23s-1.18-0.4-1.63-0.75c-0.45-0.35-0.8-0.82-1.04-1.42c-0.24-0.59-0.36-1.34-0.36-2.25v-5.88
		c0-0.54-0.62-0.81-1.87-0.81l-0.18-1.12l6-0.39v7.65c0,0.44,0.02,0.86,0.05,1.27c0.03,0.4,0.11,0.76,0.24,1.07
		c0.13,0.31,0.33,0.56,0.59,0.74c0.26,0.18,0.62,0.27,1.08,0.27c0.72,0,1.3-0.25,1.72-0.75c0.42-0.5,0.77-1.21,1.05-2.11v-5.82
		c0-0.54-0.69-0.81-2.08-0.81l-0.18-1.12l6.21-0.39v9.98c0,0.54,0.66,0.84,1.99,0.9l0.3,1.18L39.61,23.52z"/>
	<path class="st0" d="M50.67,14.57c-0.82,0-1.27,0.34-1.35,1.02c-0.16-0.05-0.3-0.11-0.43-0.2v2c0.41,0.15,0.84,0.22,1.3,0.22
		c1.25,0,1.87-0.52,1.87-1.56C52.06,15.06,51.6,14.57,50.67,14.57z"/>
	<path class="st0" d="M60.31,3.28c-0.24-0.43-0.57-0.77-0.98-1.02c-0.41-0.25-0.89-0.43-1.45-0.53c-0.55-0.1-1.13-0.15-1.73-0.15
		c-0.94,0-1.78,0.15-2.51,0.44c-0.74,0.29-1.4,0.73-1.98,1.31c-1.18-0.58-2.45-1.02-3.78-1.31c-1.34-0.29-2.59-0.44-3.75-0.44
		c-1.25,0-2.35,0.14-3.32,0.41c-0.96,0.27-1.82,0.63-2.57,1.07c-0.76,0.44-1.42,0.93-1.98,1.46c-0.56,0.53-1.05,1.07-1.48,1.61
		l1.06,0.82c0.26-0.39,0.62-0.79,1.08-1.22c0.47-0.44,1.01-0.83,1.65-1.19c0.63-0.37,1.34-0.66,2.14-0.89
		c0.79-0.23,1.64-0.35,2.54-0.35c1.63,0,3.73,0.74,6.3,2.23c-0.2,0.48-0.36,1.06-0.48,1.75c-0.1,0.56-0.16,1.25-0.17,2.06
		c-0.01,0.17-0.01,0.35-0.01,0.53v5.52c0.13,0.09,0.27,0.15,0.43,0.2c0.08-0.68,0.53-1.02,1.35-1.02c0.93,0,1.39,0.49,1.39,1.48
		c0,1.04-0.62,1.56-1.87,1.56c-0.46,0-0.89-0.07-1.3-0.22v3.45c0,0.84-0.63,1.26-1.9,1.26v1.27h7.96V22.1
		c-0.18,0-0.35-0.01-0.51-0.02c-1.07-0.09-1.6-0.51-1.6-1.24V9.21c0-0.17,0-0.33,0.01-0.49c0-0.27,0.01-0.52,0.02-0.75
		c0.02-0.36,0.07-0.66,0.15-0.9c0.58,0.34,1.12,0.58,1.62,0.73c0.51,0.16,1.1,0.23,1.78,0.23c0.59,0,1.14-0.06,1.66-0.18
		c0.52-0.12,0.97-0.31,1.36-0.56c0.38-0.25,0.68-0.57,0.9-0.96c0.22-0.39,0.33-0.86,0.33-1.4C60.67,4.26,60.55,3.72,60.31,3.28z
		 M57.54,6.22c-0.3,0.28-0.69,0.42-1.15,0.42c-0.76,0-1.77-0.61-3.01-1.85c0.84-1.07,1.68-1.61,2.5-1.61c0.62,0,1.13,0.15,1.52,0.44
		c0.39,0.29,0.59,0.73,0.59,1.32C57.99,5.51,57.84,5.94,57.54,6.22z"/>
	<path class="st1" d="M50.67,14.57c-0.82,0-1.27,0.34-1.35,1.02c-0.16-0.05-0.3-0.11-0.43-0.2c-0.24-0.13-0.43-0.32-0.57-0.56
		c-0.22-0.38-0.33-0.83-0.33-1.35c0-0.45,0.1-0.88,0.3-1.31c0.15-0.32,0.35-0.61,0.6-0.88V9.87c0-0.18,0-0.36,0.01-0.53
		c-0.4,0.18-0.76,0.4-1.07,0.67c-0.5,0.41-0.88,0.9-1.16,1.47c-0.29,0.57-0.43,1.22-0.43,1.95c0,0.64,0.1,1.22,0.31,1.73
		c0.2,0.51,0.48,0.95,0.84,1.31c0.36,0.36,0.78,0.64,1.27,0.84c0.07,0.03,0.15,0.06,0.23,0.08c0.41,0.15,0.84,0.22,1.3,0.22
		c1.25,0,1.87-0.52,1.87-1.56C52.06,15.06,51.6,14.57,50.67,14.57z M75.84,25.24l-0.36-13.65c0-0.2,0.03-0.39,0.1-0.57
		c0.07-0.18,0.21-0.35,0.41-0.5s0.49-0.27,0.86-0.36c0.37-0.09,0.86-0.14,1.46-0.14v-1.3h-7.14l-5.61,14.59L59.74,8.72h-6.89
		c-0.01,0.16-0.01,0.32-0.01,0.49v0.85c1.09,0.15,1.63,0.64,1.63,1.47v9.52c0,0.35-0.01,0.69-0.03,1.03
		c0.16,0.01,0.33,0.02,0.51,0.02v1.27h-0.61c-0.1,0.95-0.27,1.83-0.52,2.65c-0.43,1.46-1,2.69-1.7,3.69c-0.7,0.99-1.5,1.75-2.4,2.28
		c-0.89,0.52-1.8,0.78-2.72,0.78c-0.59,0-1.12-0.1-1.6-0.3c-0.48-0.2-0.9-0.47-1.25-0.79c-0.35-0.32-0.63-0.7-0.83-1.12
		c-0.2-0.43-0.3-0.86-0.3-1.31c0-0.5,0.1-0.94,0.32-1.31c0.21-0.38,0.54-0.63,1.01-0.77c0.08,0.7,0.52,1.05,1.32,1.05
		c0.97,0,1.45-0.51,1.45-1.53c0-1.03-0.63-1.54-1.9-1.54c-1.13,0-2.06,0.36-2.82,1.1c-0.75,0.73-1.13,1.75-1.13,3.06
		c0,0.72,0.14,1.37,0.41,1.96c0.27,0.58,0.65,1.08,1.13,1.49c0.48,0.41,1.06,0.73,1.73,0.95c0.67,0.22,1.41,0.33,2.22,0.33
		c1.44,0,2.75-0.3,3.93-0.89c1.17-0.59,2.17-1.45,3-2.56c0.82-1.12,1.45-2.47,1.9-4.06c0.44-1.58,0.66-3.37,0.66-5.36v-8.29
		l6.42,15.82h2.71l5.97-15.85l0.24,12.6c-0.04,0.66-0.27,1.16-0.68,1.49c-0.41,0.33-1.06,0.5-1.94,0.5v1.26h9.55v-1.26
		C76.77,27.44,75.88,26.7,75.84,25.24z"/>
	<path class="st1" d="M94.43,27.19c-0.18,0.62-0.58,1.08-1.19,1.39s-1.26,0.45-1.94,0.45c-0.58,0-1.15-0.14-1.7-0.42
		c-0.55-0.28-0.92-0.71-1.1-1.3c-0.66,0.52-1.27,0.94-1.81,1.25c-0.54,0.31-1.2,0.47-1.96,0.47c-1.08,0-1.98-0.25-2.7-0.74
		c-0.71-0.49-1.07-1.2-1.07-2.12c0-0.74,0.15-1.39,0.45-1.94c0.3-0.55,0.75-1.03,1.36-1.43c0.6-0.4,1.36-0.74,2.26-1.02
		c0.9-0.28,1.97-0.53,3.19-0.75v-0.96c0-0.9-0.08-1.58-0.24-2.02c-0.16-0.44-0.58-0.66-1.24-0.66c-0.65,0-1.2,0.09-1.67,0.27
		c-0.46,0.18-0.71,0.53-0.73,1.05c0.08,0.1,0.15,0.23,0.2,0.39c0.05,0.16,0.08,0.33,0.08,0.51c0,0.88-0.55,1.33-1.64,1.33
		c-0.87,0-1.3-0.5-1.3-1.51c0-0.48,0.11-0.94,0.32-1.37c0.21-0.43,0.54-0.81,0.98-1.13c0.44-0.32,1.02-0.58,1.72-0.77
		c0.71-0.19,1.56-0.29,2.57-0.29c0.62,0,1.23,0.08,1.81,0.23c0.58,0.15,1.1,0.39,1.56,0.72c0.45,0.33,0.82,0.75,1.1,1.27
		s0.42,1.14,0.42,1.88v6.33c0,0.6,0.26,0.9,0.78,0.9c0.14,0,0.28-0.03,0.42-0.11c0.14-0.07,0.3-0.16,0.48-0.26L94.43,27.19z
		 M88.31,22.37c-1.16,0.16-2.01,0.46-2.57,0.9c-0.56,0.44-0.84,1.16-0.84,2.14c0,0.64,0.1,1.12,0.29,1.45
		c0.19,0.32,0.56,0.48,1.11,0.48c0.53,0,0.92-0.09,1.19-0.26c0.26-0.17,0.45-0.39,0.56-0.66c0.11-0.27,0.17-0.58,0.18-0.92
		c0.01-0.34,0.04-0.68,0.08-1.02V22.37z"/>
	<path class="st1" d="M104.83,25.38c0,0.58-0.14,1.1-0.41,1.57c-0.27,0.46-0.63,0.85-1.07,1.18c-0.44,0.32-0.95,0.57-1.52,0.74
		c-0.57,0.17-1.16,0.26-1.76,0.26c-0.48,0-0.94-0.06-1.37-0.18c-0.43-0.12-0.82-0.31-1.16-0.56c-0.34-0.25-0.61-0.57-0.81-0.95
		c-0.2-0.38-0.3-0.83-0.3-1.36v-8.17h-1.93l0.15-1.24c0.44-0.08,0.9-0.26,1.39-0.53c0.48-0.27,0.93-0.6,1.36-0.99
		c0.42-0.39,0.79-0.84,1.1-1.34c0.31-0.5,0.53-1.02,0.65-1.57l1.24-0.18v4.34h2.14c0.22,0,0.47-0.03,0.75-0.08
		c0.28-0.05,0.54-0.12,0.78-0.19v1.78h-3.68v7.5c0,0.2,0,0.41,0.02,0.62c0.01,0.21,0.06,0.4,0.14,0.57
		c0.08,0.17,0.21,0.31,0.38,0.42c0.17,0.11,0.42,0.17,0.74,0.17c0.52,0,0.98-0.2,1.39-0.6s0.65-0.91,0.75-1.54L104.83,25.38z"/>
	<path class="st1" d="M117.43,25.57c-0.56,1.17-1.29,2.07-2.18,2.71c-0.89,0.64-1.95,0.96-3.18,0.96c-1,0-1.91-0.14-2.73-0.42
		c-0.81-0.28-1.51-0.7-2.09-1.25s-1.03-1.24-1.36-2.05c-0.32-0.81-0.48-1.74-0.48-2.79c0-1.1,0.17-2.08,0.5-2.94
		c0.33-0.85,0.79-1.57,1.37-2.15c0.58-0.58,1.27-1.02,2.05-1.33c0.78-0.3,1.63-0.45,2.53-0.45c0.98,0,1.84,0.14,2.58,0.41
		s1.34,0.65,1.82,1.15c0.48,0.49,0.84,1.07,1.08,1.73s0.36,1.39,0.36,2.17c0,0.12,0,0.25,0,0.39c0,0.14-0.01,0.28-0.03,0.42h-7.81
		c-0.22,0-0.33,0.08-0.33,0.24c0,0.68,0.06,1.33,0.18,1.93s0.32,1.13,0.59,1.57c0.27,0.44,0.61,0.79,1.02,1.04
		c0.41,0.25,0.92,0.38,1.52,0.38c0.76,0,1.44-0.24,2.03-0.72c0.59-0.48,1.12-1.04,1.58-1.69L117.43,25.57z M112.63,20.86
		c0.3,0,0.55-0.08,0.74-0.25c0.19-0.17,0.29-0.4,0.29-0.7c0-0.36-0.03-0.7-0.09-1.02c-0.06-0.32-0.16-0.6-0.3-0.84
		s-0.34-0.43-0.59-0.58c-0.25-0.15-0.57-0.22-0.95-0.22c-0.42,0-0.77,0.1-1.05,0.3s-0.51,0.46-0.68,0.78
		c-0.17,0.32-0.29,0.69-0.36,1.11c-0.07,0.42-0.11,0.84-0.11,1.26c0,0.12,0.15,0.18,0.45,0.18H112.63z"/>
</g>
<text transform="matrix(1 0 0 1 73.171 34.0357)" class="st2 st3">fashionstore</text>
</svg>
